<?xml version="1.0" encoding="utf-8"?>
<!-- Generator: Adobe Illustrator 25.2.1, SVG Export Plug-In . SVG Version: 6.00 Build 0)  -->
<svg version="1.1" id="Layer_1" xmlns="http://www.w3.org/2000/svg" xmlns:xlink="http://www.w3.org/1999/xlink" x="0px" y="0px"
	 width="740px" height="661px" viewBox="0 0 740 661" style="enable-background:new 0 0 740 661;" xml:space="preserve">
<style type="text/css">
	.st0{fill:#7CC7C9;}
	.st1{fill:#EE0000;}
	.st2{fill:#FFFFFF;}
	.st3{fill:#79C4C6;}
	.st4{clip-path:url(#SVGID_2_);}
	.st5{clip-path:url(#SVGID_4_);}
	.st6{fill:none;}
	.st7{clip-path:url(#SVGID_6_);}
	.st8{clip-path:url(#SVGID_8_);}
	.st9{clip-path:url(#SVGID_10_);}
	.st10{fill:#8F0000;}
	.st11{fill:#5F0000;}
	.st12{fill:#BE0000;}
	.st13{fill:#F56D6D;}
	.st14{fill:#6C6C6C;}
	.st15{fill:#231F20;}
	.st16{clip-path:url(#SVGID_12_);}
	.st17{clip-path:url(#SVGID_14_);}
	.st18{fill:#FAB6B6;}
	.st19{fill:none;stroke:#EE0000;stroke-width:1.562;stroke-linecap:round;stroke-linejoin:round;}
	.st20{fill:#FFFFFF;stroke:#EE0000;stroke-width:1.562;stroke-linecap:round;stroke-linejoin:round;}
	.st21{clip-path:url(#SVGID_16_);}
	.st22{clip-path:url(#SVGID_18_);}
</style>
<g id="illustration" transform="translate(1093.75 139.78)">
	<path id="Path_11574-2" class="st0" d="M-538.1-97.4h-348.4c-1.9,0-3.6,1-4.5,2.6l-174.2,301.8c-0.9,1.6-0.9,3.6,0,5.2l86.9,150.5
		l87.3,151.3c0.9,1.6,2.6,2.6,4.5,2.6h348.4c1.9,0,3.6-1,4.5-2.6l174.2-301.8c0.9-1.6,0.9-3.6,0-5.2L-533.6-94.8
		C-534.6-96.4-536.3-97.4-538.1-97.4z"/>
	<path id="Path_11984" class="st1" d="M-753.1,342.6c-107.5,0-194.9-87.5-194.9-195s87.4-195,194.9-195s194.9,87.5,194.9,195
		S-645.6,342.6-753.1,342.6z M-753.1-45.1c-106.3,0-192.7,86.5-192.7,192.8s86.4,192.8,192.7,192.8s192.7-86.5,192.7-192.8
		S-646.8-45.1-753.1-45.1L-753.1-45.1z"/>
	<g id="Group_2090" transform="translate(0 106.283)">
		<g id="Group_2089">
			<path id="Path_11985" class="st2" d="M-674.3,66.7c0-41-33.2-74.2-74.1-74.2c-1.6,0-3.2,0.1-4.8,0.2
				c-18.2-60.9-82.4-95.5-143.3-77.3c-31.6,9.5-57.7,32-71.5,62c-40.8,2-73.3,34.9-74.8,75.7c-24.2,0.5-43.5,20.5-43,44.8
				c0.5,23.5,19.4,42.5,43,43v0h294.8v0C-707.3,140.7-674.3,107.5-674.3,66.7z"/>
			<path id="Path_11986" class="st3" d="M-863.6-89.4c50.9,0,95.7,33.4,110.3,82.2c1.6-0.1,3.2-0.2,4.8-0.2c41-0.1,74.2,33,74.3,74
				s-33,74.2-74,74.3l0,0v0h-294.8v0c-24.2-0.5-43.5-20.5-43-44.7c0.5-23.6,19.5-42.6,43.1-43c1.5-40.8,34-73.7,74.8-75.7
				C-949.3-63.4-908.5-89.4-863.6-89.4 M-863.6-92c-45.3,0-86.6,26-106.2,66.9c-40.6,2.8-72.9,35.1-75.6,75.7
				c-25.6,1.7-45,23.9-43.3,49.5c1.6,24,21.3,42.8,45.3,43.4c0.1,0,0.2,0,0.4,0h294.8c0.1,0,0.2,0,0.2,0
				c42.4-0.2,76.6-34.8,76.3-77.2c-0.2-42.3-34.6-76.4-76.9-76.3c-0.9,0-1.9,0-3,0.1c-7.4-23.2-21.8-43.5-41.2-58.3
				C-813.1-83.7-838-92.1-863.6-92L-863.6-92z"/>
		</g>
		<path id="Path_11987" class="st0" d="M-886,41.1c0-12.2,9.9-22.2,22.2-22.2s22.2,9.9,22.2,22.2c0,8.4-4.7,16-12.1,19.8v22
			c0,5.5-4.5,10-10,10c-5.5,0-10-4.5-10-10v-22C-881.4,57.1-886,49.4-886,41.1z"/>
	</g>
	<g id="Group_2091" transform="translate(305.552 210.603)">
		<path id="Path_11988" class="st2" d="M-918.4-18.7c4.5,0,8.9,0.7,13.2,2c15.4-29.1,51.6-40.2,80.7-24.8
			c12.7,6.8,22.6,17.9,27.8,31.4c15.8,0.5,29.9,10.2,36,24.9c15.3-3.9,30.9,5.3,34.8,20.6c3.9,15.3-5.3,30.9-20.6,34.8
			c-2.3,0.6-4.7,0.9-7,0.9h-164.8c-24.8,0-44.8-20.1-44.8-44.8S-943.1-18.7-918.4-18.7L-918.4-18.7L-918.4-18.7z"/>
		<path id="Path_11989" class="st2" d="M-753.6,72.1h-164.8c-25.4,0-45.9-20.6-45.9-45.9c0-25.4,20.6-45.9,45.9-45.9
			c4.3,0,8.5,0.6,12.6,1.8c16.1-29.4,53.1-40.2,82.5-24c12.4,6.8,22,17.7,27.2,30.8c15.6,0.8,29.5,10.3,35.9,24.6
			c16-3.6,31.8,6.5,35.4,22.5c3.6,16-6.5,31.8-22.5,35.4C-749.2,71.8-751.4,72.1-753.6,72.1L-753.6,72.1z M-918.4-17.6
			c-24.2,0-43.8,19.6-43.8,43.8s19.6,43.8,43.8,43.8h164.8c15.2,0,27.5-12.3,27.5-27.5c0-15.2-12.3-27.5-27.5-27.5
			c-2.3,0-4.6,0.3-6.8,0.9l-0.9,0.2l-0.4-0.9c-6-14.2-19.7-23.6-35.1-24.2l-0.7,0l-0.3-0.7c-11.6-30.2-45.5-45.3-75.7-33.7
			c-13.2,5.1-24.2,14.8-30.8,27.3l-0.4,0.8l-0.9-0.3C-909.7-17-914-17.6-918.4-17.6z"/>
	</g>
	<g id="Group_2093" transform="translate(222.615 0)">
		<g id="Group_2092">
			<path id="Path_11990" class="st2" d="M-928-87.9c6.7,0,13.4,1,19.9,3c23.2-43.8,77.6-60.5,121.5-37.3
				c19.2,10.2,34,26.9,41.8,47.2c23.8,0.8,45,15.4,54.3,37.4c23-5.9,46.5,8,52.4,31c5.9,23-8,46.5-31,52.4
				c-3.5,0.9-7.1,1.3-10.7,1.3H-928c-37.3,0-67.5-30.2-67.5-67.5S-965.3-87.9-928-87.9L-928-87.9z"/>
			<path id="Path_11991" class="st3" d="M-828.7-132.7c37.2,0,70.6,22.9,83.9,57.7c23.8,0.8,45,15.4,54.3,37.4
				c23-5.9,46.5,8,52.4,31c5.9,23-8,46.5-31,52.4c-3.5,0.9-7.1,1.3-10.7,1.3H-928c-37.3,0-67.5-30.2-67.5-67.5
				c0-37.3,30.2-67.5,67.5-67.5c6.7,0,13.4,1,19.8,3C-892.5-114.3-862-132.7-828.7-132.7 M-828.7-135.3c-33.5,0-64.3,18.1-80.7,47.3
				c-37.3-10.2-75.9,11.7-86.2,49.1s11.7,75.9,49.1,86.2c6,1.7,12.3,2.5,18.5,2.5h248.1c25.2,0,45.6-20.5,45.6-45.7
				c0-25.2-20.5-45.6-45.7-45.6c-3.1,0-6.1,0.3-9.2,0.9c-9.8-21.3-30.6-35.5-54-36.9C-757.2-112.5-791.1-135.3-828.7-135.3
				L-828.7-135.3z"/>
		</g>
	</g>
	<g id="Group_2101" transform="translate(292.507 71.452)">
		<path id="Path_11992" class="st2" d="M-924.5-24.6c-0.5,0-0.9-0.4-0.9-0.9c0,0,0,0,0,0v-28.7c0-0.5,0.4-0.9,0.9-0.9
			s0.9,0.4,0.9,0.9c0,0,0,0,0,0.1v28.7C-923.7-25-924-24.6-924.5-24.6C-924.5-24.6-924.5-24.6-924.5-24.6z"/>
		<path id="Path_11993" class="st2" d="M-924.5-7.3c-0.5,0-0.9-0.4-0.9-0.9c0,0,0,0,0,0v-46c0-0.5,0.4-0.9,0.9-0.9s0.9,0.4,0.9,0.9
			c0,0,0,0,0,0.1v46C-923.7-7.7-924-7.3-924.5-7.3C-924.5-7.3-924.5-7.3-924.5-7.3z"/>
		<path id="Path_11994" class="st1" d="M-879.6-80.2v52l-45,26l-45-26v-52l45-26L-879.6-80.2z"/>
		<g id="Group_2095">
			<g>
				<defs>
					<polygon id="SVGID_1_" points="-879.6,-80.2 -879.6,-28.2 -924.6,-2.2 -969.6,-28.2 -969.6,-80.2 -924.6,-106.2 					"/>
				</defs>
				<clipPath id="SVGID_2_">
					<use xlink:href="#SVGID_1_"  style="overflow:visible;"/>
				</clipPath>
				<g id="Group_2094" class="st4">
					<path id="Path_11995" d="M-961-121c-2.7,2.9-3.9,8.7-5.1,12.3c-2.7,7.6-4.2,15.6-4.6,23.7c-0.1,11.1,7.1,21.6,14.1,29.7
						c6.8,7.8,15.6,13.6,21.8,21.9c1.1,1.5,2.1,3.1,3,4.7c5.4,10,7,21.7,6,33c0,0.5-0.1,3.9-1,3.9l-61,2.1l-4.7-130.2
						C-992.4-119.7-959.9-122.1-961-121z"/>
				</g>
			</g>
		</g>
		<g id="Group_2100">
			<g>
				<defs>
					<polygon id="SVGID_3_" points="-879.6,-80.2 -879.6,-28.2 -924.6,-2.2 -969.6,-28.2 -969.6,-80.2 -924.6,-106.2 					"/>
				</defs>
				<clipPath id="SVGID_4_">
					<use xlink:href="#SVGID_3_"  style="overflow:visible;"/>
				</clipPath>
				<g id="Group_2099" class="st5">
					<g id="Group_2098" transform="translate(-0.767 17.702)">
						<g id="Group_2096" transform="translate(0 0.001)">
							<line id="Line_210" class="st6" x1="-968.8" y1="-97.9" x2="-923.8" y2="-71.9"/>
							<path id="Path_11997" class="st2" d="M-923.8-70.8c-0.2,0-0.4,0-0.5-0.1l-45-26c-0.5-0.3-0.7-1-0.4-1.5
								c0.3-0.5,1-0.7,1.5-0.4l0,0l45,26c0.5,0.3,0.7,1,0.4,1.5C-923-71-923.4-70.8-923.8-70.8L-923.8-70.8z"/>
						</g>
						<path id="Path_11998" class="st2" d="M-923.8-10.5c-0.6,0-1.1-0.5-1.1-1.1v-60.3c0-0.6,0.5-1.1,1.1-1.1c0.6,0,1.1,0.5,1.1,1.1
							v60.3C-922.7-11-923.2-10.5-923.8-10.5z"/>
						<g id="Group_2097" transform="translate(32.003)">
							<line id="Line_211" class="st6" x1="-910.8" y1="-97.9" x2="-955.8" y2="-71.9"/>
							<path id="Path_11999" class="st2" d="M-955.8-70.8c-0.6,0-1.1-0.5-1.1-1.1c0-0.4,0.2-0.7,0.5-0.9l45-26
								c0.5-0.3,1.2-0.1,1.5,0.4c0.3,0.5,0.1,1.2-0.4,1.5l0,0l-45,26C-955.4-70.9-955.6-70.8-955.8-70.8z"/>
						</g>
					</g>
				</g>
			</g>
		</g>
	</g>
	<g id="Group_2109" transform="translate(271.921 137.812)">
		<path id="Path_12001" class="st2" d="M-957.5-42.1c-0.2,0-0.4-0.2-0.4-0.4v-13c0-0.2,0.2-0.4,0.4-0.4c0.2,0,0.4,0.2,0.4,0.4
			c0,0,0,0,0,0v13C-957.1-42.3-957.3-42.1-957.5-42.1z"/>
		<path id="Path_12002" class="st2" d="M-957.5-34.3c-0.2,0-0.4-0.2-0.4-0.4c0,0,0,0,0,0v-20.9c0-0.2,0.2-0.4,0.4-0.4
			c0.2,0,0.4,0.2,0.4,0.4c0,0,0,0,0,0v20.9C-957.1-34.5-957.3-34.3-957.5-34.3C-957.5-34.3-957.5-34.3-957.5-34.3z"/>
		<path id="Path_12003" class="st1" d="M-937.1-67.4v23.6L-957.5-32L-978-43.8v-23.6l20.4-11.8L-937.1-67.4z"/>
		<g id="Group_2103">
			<g>
				<defs>
					<polygon id="SVGID_5_" points="-937.1,-67.4 -937.1,-43.8 -957.5,-32 -978,-43.8 -978,-67.4 -957.5,-79.2 					"/>
				</defs>
				<clipPath id="SVGID_6_">
					<use xlink:href="#SVGID_5_"  style="overflow:visible;"/>
				</clipPath>
				<g id="Group_2102" class="st7">
					<path id="Path_12004" d="M-974.1-85.9c-1.2,1.3-1.8,4-2.3,5.6c-1.2,3.5-1.9,7.1-2.1,10.8c-0.1,5,3.2,9.8,6.4,13.5
						c3.1,3.5,7.1,6.2,9.9,9.9c0.5,0.7,1,1.4,1.4,2.1c2.4,4.6,3.3,9.8,2.7,15c0,0.2-0.1,1.8-0.5,1.8l-27.7,1l-2.1-59.1
						C-988.3-85.3-973.6-86.4-974.1-85.9z"/>
				</g>
			</g>
		</g>
		<g id="Group_2108">
			<g>
				<defs>
					<polygon id="SVGID_7_" points="-937.1,-67.4 -937.1,-43.8 -957.5,-32 -978,-43.8 -978,-67.4 -957.5,-79.2 					"/>
				</defs>
				<clipPath id="SVGID_8_">
					<use xlink:href="#SVGID_7_"  style="overflow:visible;"/>
				</clipPath>
				<g id="Group_2107" class="st8">
					<g id="Group_2106" transform="translate(-0.614 7.769)">
						<g id="Group_2104" transform="translate(0 0)">
							<line id="Line_212" class="st6" x1="-977.3" y1="-75.2" x2="-956.9" y2="-63.3"/>
							<path id="Path_12006" class="st2" d="M-956.9-62.5c-0.2,0-0.3,0-0.4-0.1l-20.4-11.8c-0.4-0.2-0.6-0.8-0.3-1.2
								c0.2-0.4,0.8-0.6,1.2-0.3c0,0,0,0,0,0l20.4,11.8c0.4,0.2,0.6,0.8,0.3,1.2C-956.3-62.6-956.6-62.5-956.9-62.5L-956.9-62.5z"/>
						</g>
						<path id="Path_12007" class="st2" d="M-956.9-35.1c-0.5,0-0.9-0.4-0.9-0.9l0,0v-27.4c0-0.5,0.4-0.9,0.9-0.9s0.9,0.4,0.9,0.9
							V-36C-956-35.5-956.4-35.1-956.9-35.1C-956.9-35.1-956.9-35.1-956.9-35.1z"/>
						<g id="Group_2105" transform="translate(14.525)">
							<line id="Line_213" class="st6" x1="-951" y1="-75.2" x2="-971.4" y2="-63.3"/>
							<path id="Path_12008" class="st2" d="M-971.4-62.5c-0.5,0-0.9-0.4-0.9-0.9c0-0.3,0.2-0.6,0.4-0.8l20.4-11.8
								c0.4-0.2,0.9-0.1,1.2,0.3c0.2,0.4,0.1,0.9-0.3,1.2l0,0L-971-62.6C-971.1-62.5-971.3-62.5-971.4-62.5z"/>
						</g>
					</g>
				</g>
			</g>
		</g>
	</g>
	<g id="Group_2147" transform="translate(16.196 26.957)">
		<g>
			<defs>
				<path id="SVGID_9_" d="M-554.3-124.3h-348.4c-1.9,0-3.6,1-4.5,2.6l-174.2,301.8c-0.9,1.6-0.9,3.6,0,5.2l86.9,150.5l87.3,151.3
					c0.9,1.6,2.6,2.6,4.5,2.6h348.4c1.9,0,3.6-1,4.5-2.6l174.2-301.8c0.9-1.6,0.9-3.6,0-5.2l-174.2-301.8
					C-550.8-123.3-552.5-124.3-554.3-124.3z"/>
			</defs>
			<clipPath id="SVGID_10_">
				<use xlink:href="#SVGID_9_"  style="overflow:visible;"/>
			</clipPath>
			<g id="Group_2146" class="st9">
				<g id="Group_2131" transform="translate(194.818 121.827)">
					<g id="Group_2113" transform="translate(110.455)">
						<path id="Path_12010" class="st10" d="M-898.2-28l10,10.3l20.6,31.8c0,0,19.6,26.9,30,30.5l16.2-10.1l-18.1-31.3
							c0,0-17.8-14.6-19.9-15.9c0,0-23.4-16.5-26-23.7"/>
						<path id="Path_12011" class="st10" d="M-806.9-33.4c0,0-15.1,1.1-18.9,4.7l-10.9,12.3c-0.5,0.6-0.8,1.3-0.8,2.1V-9
							c0,1-0.4,2-1.2,2.7c-2,1.7-3.4,4-4,6.6c0,0-2.8,18-2.3,20.7s7.6,10.8,7.6,10.8s18,4.2,20.9-12.4L-806.9-33.4z"/>
						<path id="Path_12012" class="st11" d="M-833.9,33.3c-2.2,0-4.3-1-5.7-2.8c-3.8-4.6-5.9-7.8-6.3-9.4c-0.6-2.8,1.9-19.2,2.2-21
							c0.6-2.8,2.1-5.2,4.3-7.1c0.6-0.5,0.9-1.3,0.9-2v-5.3c0-1,0.4-1.9,1-2.7l10.9-12.3c4.1-3.9,18.9-5,19.5-5l0.1,1.7
							c-4.1,0.3-15.4,1.7-18.4,4.5l-10.8,12.3c-0.4,0.4-0.6,1-0.6,1.5V-9c0,1.2-0.5,2.4-1.4,3.3c-1.9,1.6-3.2,3.7-3.8,6.1
							c-1.1,7.2-2.7,18.6-2.3,20.4c0.3,1.2,2.5,4.4,5.9,8.6c1.2,1.5,3,2.3,4.9,2.1c2.5-0.3,4.2-2.2,4.9-5.6l1.7,0.4
							c-1.1,5.2-4.1,6.7-6.4,6.9C-833.3,33.3-833.6,33.3-833.9,33.3z"/>
						<path id="Path_12013" class="st10" d="M-931.3-36.4c0,0,13,22.6,16.5,25.7s13.2,17.4,15.1,25.5c0,0,4.4,7.5,9,10.5
							s21,15,23.1,17.7c0,0,16.4-1.6,21.6,6.6l-8.7,49l-22.5-17.7c-12.9-10.1-24.4-22.1-34-35.4c-2.4-3.3-4.1-5.9-4.2-6.8l0,0
							c-2.3-2-4.2-4.4-5.6-7.1c-6.9-13.2-26.1-54-26.8-61.7"/>
						<path id="Path_12014" d="M-833.3,284.2c0.7,14.6-6,91.9-6,91.9c6,14.2,14.4,85,14.4,85h-31.1c-4-7.3-17.8-75.8-17.8-75.8
							l-6-24.1c-21.8-65.1-6.2-151.6-6.2-151.6l27.7-14.3c0,0,27.1-3.4,29.1-3.1c2,0.4,27.8,2.7,27.8,2.7l3.9,10.3
							c0,0,12.9,36.8,5.3,64l-21.5,75.8V357c0,0,6.4,67,4,91.5l-16.4,1.6"/>
						<path id="Path_12015" class="st1" d="M-862.3,77.8c0,0-13.8,10.9-15.2,28.5c-1,12.1,3.9,19.1,2,25.2c-2,6-12.6,46.7-16.7,90.6
							c0,0,62.3-12.6,99.1-0.1c0,0-5.2-30.1-5.7-35.4c-0.8-8.4,1.8-23.4,16.9-52.3V81.2l-14.4-33H-849L-862.3,77.8z"/>
						<path id="Path_12016" class="st12" d="M-810.3,79.3c-12.2,14.9-21.7,32.2-26.3,50.9c-1.4,5.4-2.1,10.9-2.1,16.4
							c0.1,12.1,5.8,23.1,7.1,35.1c0.7,6.6,0.3,14-2.9,20c-2.7,5-8.3,8.7-8.7,14.8c16.9-0.2,33.8,0,50,5.5c0,0-5.2-30.1-5.7-35.4
							c-0.8-8.4,1.8-23.4,16.9-52.3V81.2l-9.4-21.5C-798.2,65.7-804.5,72.3-810.3,79.3z"/>
						<g id="Group_2110" transform="translate(0 4.346)">
							<path id="Path_12017" class="st10" d="M-947.7-34.3c-3.1-5.2-6.5-10.5-9.4-15.8c-1.1-2.2-0.7-4.8,1-6.5
								c0.6-0.5,1.3-0.9,1.7-1.6c0.4-0.7,0.7-2,1-2.8c0.1-0.3,0.3-0.7,0.6-0.9c0.3-0.3,0.7-0.4,1-0.7c0.8-0.6,1.1-1.6,0.9-2.6
								c-0.1-0.2-0.1-0.5-0.3-0.7c-0.4-0.9-0.9-1.9-1.3-2.9l0,0c-0.5-1-0.2-2.2,0.5-2.9c1-0.8,2.4-1.2,3.7-0.9c0.3,0,0.5,0,0.8,0
								c0.5-0.1,0.9-0.2,1.4-0.3c0.9,0,1.5,0,2,0.9c4.1,6.6,8.2,13.2,12.3,19.8c0.3,0.4,0.4,0.8,0.3,1.3c-0.4,3.3-0.6,7-0.9,10.4
								c0.1,0.9-0.5,1.6-1.4,1.8C-938.3-37.2-943.1-35.9-947.7-34.3z"/>
						</g>
						<path id="Path_12018" class="st10" d="M-933.2-32.2l7.8-17.6l0.7-10.4c0-0.4,0-0.7-0.2-1c-1.2-2.1-2.1-4.3-2.7-6.6
							c-0.1-0.5-0.5-0.8-0.9-0.8h-1.7c-0.7,0-1.3,0.5-1.5,1.2c-0.3,2.5-0.2,5,0.5,7.4l-1,5.2l-10.4-17.8c-0.4-0.6-1-1.1-1.7-1.4
							l-1.8-0.6c-0.5-0.2-0.9-0.1-1.4,0.1l-0.9,0.4c-0.7,0.3-1.1,1.2-0.8,1.9l2.3,6.7"/>
						<path id="Path_12019" class="st10" d="M-888.5-68.9c-0.6-0.3-1.3-0.6-2-0.8l0,0c-0.7,0.4-1.1,1.2-1,2.1
							c0.2,3.1,0.4,10.5,0.4,10.5c-0.8,1.7-1.7,3.3-2.7,4.9c-0.6-1.7-1.1-3.4-1.4-5.1c-0.1-0.3-0.2-0.5-0.5-0.7
							c-1.4-0.9-2.9-3.8-3.6-5.1c-0.2-0.4-0.6-0.5-1-0.3c0,0,0,0-0.1,0l-2.8,1.8c0,0-0.5,5.1,2,8.3l1.1,3.5c0.5,1.4,0.3,3-0.5,4.3
							c-1.4,2.1-2,4.6-1.7,7l0.9,4.8c0.3,1.4,0.8,2.7,1.7,3.9l1.4,1.9l1.7,1.8l10.9-10.2l1-19.2L-888.5-68.9z"/>
						<g id="Group_2111" transform="translate(53.747 83.056)">
							<path id="Path_12020" class="st1" d="M-908.8,13.1c-10.3,0.3-25.5-9.9-25.5-9.9C-938.7-26-915-39.8-915-39.8
								s9.4,0.4,14.9,5.1"/>
							<path id="Path_12021" class="st13" d="M-909.2,14.2c-10.5,0-25-9.7-25.7-10.1l-0.4-0.3l-0.1-0.5c-4.5-29.5,19.5-43.9,19.7-44
								l0.3-0.2l0.3,0c0.4,0,9.9,0.4,15.6,5.4l-1.4,1.6c-4.6-4-12.3-4.7-14-4.8c-2.5,1.6-22.3,15.1-18.5,41.2
								c2.4,1.6,15.5,9.7,24.4,9.5l0.1,2.2C-908.9,14.2-909,14.2-909.2,14.2z"/>
						</g>
						<path id="Path_12022" d="M-759.3,88c3-23.8-4.7-47.4-2-71.2c0.9-8.4,0.6-17-0.8-25.3c-4.3-29.4-35.3-29.8-35.3-29.8
							c-10.7-1.8-21.7,0.2-31,5.9c-1.2,0.7-1.7,2.1-1.5,3.4c0.5,2.4,2.3,5.9,9.1,8.2c0,0-16.8,5.7-8.8,24.7
							c8.7,20.7-4.7,32.8-19.7,41.5c0,0-1.6,31,26,40.6c0,0-9.5,19.6,8.7,38.5h0c-0.4-4,0.2-8,1.7-11.7c0,0,0.1,0.2,0.2,0.6
							c4.5,13.6,18,22,32.1,20.3c7.4-0.9,14.7-2.8,21.6-5.6C-765.6,119.4-760.5,97.5-759.3,88z"/>
						<path id="Path_12023" d="M-784.1,135c-13.4,0-25.3-8.5-29.5-21.2c-0.1-0.4-0.2-0.7-0.2-0.7c-0.1-0.6,0.2-1.1,0.7-1.3
							c0.5-0.1,1.1,0.2,1.3,0.7c0,0,0.1,0.2,0.2,0.6c4.4,13.1,17.3,21.2,31,19.6c6.9-0.9,13.7-2.6,20.1-5.1
							c-4.9-8.1-2.4-23.7-0.7-34.2c0.3-2.2,0.6-4.1,0.8-5.6c1.5-11.9,0.2-24-0.9-35.7c-1.2-11.6-2.4-23.6-1-35.5
							c0.8-8.4,0.6-16.8-0.8-25.1c-4.1-28.2-33.1-28.8-34.3-28.9l-0.2,0c-10.5-1.8-21.2,0.2-30.3,5.7c-0.8,0.5-1.2,1.4-1,2.3
							c0.4,2.3,2.3,5.4,8.4,7.4l3,1l-2.9,1c-3.9,1.5-7.2,4.5-9.1,8.2c-1.9,4.2-1.6,9.3,0.9,15.1c9.2,21.9-5.5,34.2-19.6,42.5
							c0,4.2,0.8,30.5,25.3,39c0.5,0.2,0.8,0.8,0.6,1.3c-0.2,0.5-0.8,0.8-1.3,0.6l0,0c-28-9.7-26.7-41.3-26.7-41.7l0-0.6l0.5-0.3
							c25.8-15,23.8-29.4,19.3-40.2c-2.7-6.4-3-12-0.8-16.8c1.7-3.5,4.5-6.4,7.9-8.3c-5.3-2.3-7-5.6-7.5-8.1c-0.3-1.8,0.4-3.5,2-4.5
							c9.5-5.7,20.7-7.9,31.7-6c1.9,0.1,32,1.5,36.2,30.6c1.4,8.5,1.6,17.1,0.8,25.6c-1.3,11.7-0.1,23.5,1,35
							c1.2,11.8,2.4,24,0.9,36.2c-0.2,1.6-0.5,3.5-0.8,5.7c-1.7,10.7-4.2,26.8,1.1,33.7l0.8,1.1l-1.2,0.5c-7,2.9-14.4,4.8-21.9,5.7
							C-781.6,135-782.8,135-784.1,135z"/>
						<g id="Group_2112" transform="translate(89.111 51.521)">
							<path id="Path_12024" class="st10" d="M-918.9-46.7c0,0,1-6.4,5.7-6.2c3-0.1,5.5,2.1,5.9,5l0,0c0.8,3.1,0.3,6.4-1.3,9.2
								c-0.5,0.9-1.2,1.7-2,2.4c-1.5,0.9-2.8,1.9-4.1,3.1c-1.8,1.4-4.3,1.1-5.7-0.6c-0.1-0.1-0.1-0.2-0.2-0.3"/>
							<path id="Path_12025" class="st11" d="M-917.3-31.3c-1.6,0-3.1-0.8-4-2.1c-0.3-0.4-0.2-0.9,0.2-1.2c0.4-0.3,0.9-0.2,1.2,0.1
								c0.9,1.5,2.9,1.9,4.4,1c0.1,0,0.1-0.1,0.2-0.2c1.3-1.2,2.7-2.3,4.3-3.2c0.7-0.6,1.3-1.3,1.8-2.1c1.5-2.6,1.9-5.7,1.2-8.6
								c-0.3-2.6-2.5-4.5-5.1-4.4h-0.1c-3.8,0-4.7,5.4-4.7,5.5c-0.1,0.5-0.5,0.8-1,0.7c-0.5-0.1-0.8-0.5-0.7-1
								c0.4-2.5,2.2-7.1,6.6-6.9c3.4-0.1,6.3,2.4,6.8,5.7c0.8,3.3,0.3,6.9-1.4,9.9c-0.6,1-1.3,1.9-2.3,2.6c-1.4,0.8-2.7,1.8-3.9,2.9
								c0,0.1-0.1,0.1-0.2,0.2C-915.1-31.7-916.1-31.3-917.3-31.3z"/>
						</g>
						<path id="Path_12026" class="st14" d="M-788.2-14.8c-21.2,0-34.9-5-35.1-5.1c-0.4-0.2-0.7-0.7-0.5-1.1
							c0.2-0.4,0.6-0.6,1.1-0.5c0.1,0.1,13.9,5.1,35.4,4.9l0,0c0.5,0,0.8,0.4,0.8,0.9c0,0.4-0.4,0.8-0.8,0.8L-788.2-14.8z"/>
					</g>
					<g id="Group_2130" transform="translate(0 87.979)">
						<g id="Group_2117">
							<g id="Group_2114">
								<rect id="Rectangle_1872" x="-1001.7" y="-37.8" class="st15" width="188" height="51.2"/>
								<path id="Path_12027" class="st3" d="M-813.7,14.4h-188c-0.6,0-1.1-0.5-1.1-1.1c0,0,0,0,0,0v-51.2c0-0.6,0.5-1.1,1.1-1.1
									h188c0.6,0,1.1,0.5,1.1,1.1c0,0,0,0,0,0v51.2C-812.6,13.9-813.1,14.4-813.7,14.4C-813.7,14.4-813.7,14.4-813.7,14.4z
									 M-1000.7,12.3h185.9v-49h-185.9V12.3z"/>
							</g>
							<ellipse id="Ellipse_208" class="st2" cx="-844.1" cy="-12.3" rx="6" ry="6"/>
							<ellipse id="Ellipse_209" class="st1" cx="-844.1" cy="38.9" rx="6.7" ry="6.7"/>
							<ellipse id="Ellipse_210" class="st1" cx="-844.1" cy="90.1" rx="6.7" ry="6.7"/>
							<g id="Group_2115" transform="translate(0 109.061)">
								<rect id="Rectangle_1873" x="-1001.7" y="6.6" class="st15" width="188" height="51.2"/>
								<path id="Path_12028" class="st3" d="M-813.7,58.8h-188c-0.6,0-1.1-0.5-1.1-1.1l0,0V6.6c0-0.6,0.5-1.1,1.1-1.1h188
									c0.6,0,1.1,0.5,1.1,1.1c0,0,0,0,0,0v51.2C-812.6,58.3-813.1,58.8-813.7,58.8C-813.7,58.8-813.7,58.8-813.7,58.8z
									 M-1000.7,56.7h185.9V7.6h-185.9V56.7z"/>
							</g>
							<ellipse id="Ellipse_211" class="st2" cx="-844.1" cy="141.2" rx="6.7" ry="6.7"/>
							<g id="Group_2116" transform="translate(23.5 15.463)">
								<rect id="Rectangle_1874" x="-993.2" y="-32.6" class="st2" width="100.1" height="9.7"/>
								<rect id="Rectangle_1875" x="-993.2" y="120.9" class="st2" width="100.1" height="9.7"/>
							</g>
						</g>
						<g id="Group_2121" transform="translate(0 216.567)">
							<g id="Group_2118">
								<rect id="Rectangle_1876" x="-1001.7" y="50.4" class="st15" width="188" height="51.2"/>
								<path id="Path_12029" class="st3" d="M-813.7,102.6h-188c-0.6,0-1.1-0.5-1.1-1.1l0,0V50.4c0-0.6,0.5-1.1,1.1-1.1
									c0,0,0,0,0,0h188c0.6,0,1.1,0.5,1.1,1.1v0v51.2C-812.6,102.1-813.1,102.6-813.7,102.6z M-1000.7,100.5h185.9v-49h-185.9
									V100.5z"/>
							</g>
							<ellipse id="Ellipse_212" class="st1" cx="-844.1" cy="75.9" rx="6.7" ry="6.7"/>
							<g id="Group_2119" transform="translate(0 36.353)">
								<rect id="Rectangle_1877" x="-1001.7" y="65.2" class="st15" width="188" height="51.2"/>
								<path id="Path_12030" class="st3" d="M-813.7,117.4h-188c-0.6,0-1.1-0.5-1.1-1.1l0,0V65.2c0-0.6,0.5-1.1,1.1-1.1
									c0,0,0,0,0,0h188c0.6,0,1.1,0.5,1.1,1.1v0v51.2C-812.6,116.9-813.1,117.4-813.7,117.4z M-1000.7,115.3h185.9v-49h-185.9
									V115.3z"/>
							</g>
							<ellipse id="Ellipse_213" class="st1" cx="-844.1" cy="127.1" rx="6.7" ry="6.7"/>
							<g id="Group_2120" transform="translate(22.296 15.506)">
								<rect id="Rectangle_1878" x="-993.7" y="55.6" class="st1" width="101.1" height="9.6"/>
								<rect id="Rectangle_1879" x="-993.7" y="106.8" class="st1" width="101.1" height="9.6"/>
							</g>
						</g>
						<g id="Group_2123" transform="translate(0 36.354)">
							<g id="Group_2122">
								<rect id="Rectangle_1880" x="-1001.7" y="-23" class="st15" width="188" height="52.5"/>
								<path id="Path_12031" class="st3" d="M-813.7,30.6h-188c-0.6,0-1.1-0.5-1.1-1.1V-23c0-0.6,0.5-1.1,1.1-1.1h188
									c0.6,0,1.1,0.5,1.1,1.1c0,0,0,0,0,0v52.5C-812.6,30.1-813.1,30.6-813.7,30.6C-813.7,30.6-813.7,30.6-813.7,30.6z
									 M-1000.7,28.4h185.9V-22h-185.9V28.4z"/>
							</g>
							<rect id="Rectangle_1881" x="-981.9" y="-12.5" class="st2" width="8.6" height="31.5"/>
							<rect id="Rectangle_1882" x="-967" y="-12.5" class="st2" width="8.6" height="31.5"/>
							<ellipse id="Ellipse_214" class="st2" cx="-862.2" cy="3.2" rx="5.5" ry="5.5"/>
							<ellipse id="Ellipse_215" class="st2" cx="-844.1" cy="3.2" rx="5.5" ry="5.5"/>
						</g>
						<g id="Group_2125" transform="translate(0 71.73)">
							<g id="Group_2124">
								<rect id="Rectangle_1883" x="-1001.7" y="-8.6" class="st15" width="188" height="52.5"/>
								<path id="Path_12032" class="st3" d="M-813.7,45h-188c-0.6,0-1.1-0.5-1.1-1.1V-8.6c0-0.6,0.5-1.1,1.1-1.1h188
									c0.6,0,1.1,0.5,1.1,1.1c0,0,0,0,0,0v52.5C-812.6,44.5-813.1,45-813.7,45C-813.7,45-813.7,45-813.7,45z M-1000.7,42.9h185.9
									V-7.6h-185.9V42.9z"/>
							</g>
							<rect id="Rectangle_1884" x="-981.9" y="1.9" class="st2" width="8.6" height="31.5"/>
							<rect id="Rectangle_1885" x="-967" y="1.9" class="st2" width="8.6" height="31.5"/>
							<ellipse id="Ellipse_216" class="st2" cx="-862.2" cy="17.6" rx="5.5" ry="5.5"/>
							<ellipse id="Ellipse_217" class="st2" cx="-844.1" cy="17.6" rx="5.5" ry="5.5"/>
						</g>
						<g id="Group_2127" transform="translate(0 144.085)">
							<g id="Group_2126">
								<rect id="Rectangle_1886" x="-1001.7" y="20.8" class="st15" width="188" height="52.5"/>
								<path id="Path_12033" class="st3" d="M-813.7,74.4h-188c-0.6,0-1.1-0.5-1.1-1.1c0,0,0,0,0,0V20.8c0-0.6,0.5-1.1,1.1-1.1
									c0,0,0,0,0,0h188c0.6,0,1.1,0.5,1.1,1.1v52.5C-812.6,74-813.1,74.4-813.7,74.4C-813.7,74.4-813.7,74.4-813.7,74.4z
									 M-1000.7,72.3h185.9V21.9h-185.9V72.3z"/>
							</g>
							<rect id="Rectangle_1887" x="-981.9" y="31.3" class="st2" width="8.6" height="31.5"/>
							<rect id="Rectangle_1888" x="-967" y="31.3" class="st2" width="8.6" height="31.5"/>
							<ellipse id="Ellipse_218" class="st2" cx="-862.2" cy="47.1" rx="5.5" ry="5.5"/>
							<ellipse id="Ellipse_219" class="st2" cx="-844.1" cy="47.1" rx="5.5" ry="5.5"/>
						</g>
						<g id="Group_2129" transform="translate(0 179.461)">
							<g id="Group_2128">
								<rect id="Rectangle_1889" x="-1001.7" y="35.2" class="st15" width="188" height="52.5"/>
								<path id="Path_12034" class="st3" d="M-813.7,88.8h-188c-0.6,0-1.1-0.5-1.1-1.1V35.2c0-0.6,0.5-1.1,1.1-1.1c0,0,0,0,0,0h188
									c0.6,0,1.1,0.5,1.1,1.1v52.5C-812.6,88.4-813.1,88.8-813.7,88.8C-813.7,88.8-813.7,88.8-813.7,88.8z M-1000.7,86.7h185.9
									V36.3h-185.9V86.7z"/>
							</g>
							<rect id="Rectangle_1890" x="-981.9" y="45.8" class="st2" width="8.6" height="31.5"/>
							<rect id="Rectangle_1891" x="-967" y="45.8" class="st2" width="8.6" height="31.5"/>
							<ellipse id="Ellipse_220" class="st2" cx="-862.2" cy="61.5" rx="5.5" ry="5.5"/>
							<ellipse id="Ellipse_221" class="st2" cx="-844.1" cy="61.5" rx="5.5" ry="5.5"/>
						</g>
					</g>
				</g>
				<g id="Group_2145" transform="translate(58.24 182.947)">
					<g id="Group_2144">
						<g id="Group_2139" transform="translate(86.665 69.034)">
							<path id="Path_12035" class="st2" d="M-999.4,21.3c-0.3,0-0.5-0.2-0.5-0.5c0,0,0,0,0,0V5.7c0-0.3,0.2-0.5,0.5-0.5
								c0.3,0,0.5,0.2,0.5,0.5c0,0,0,0,0,0v15.1C-998.9,21.1-999.1,21.3-999.4,21.3C-999.4,21.3-999.4,21.3-999.4,21.3z"/>
							<path id="Path_12036" class="st2" d="M-999.4,30.4c-0.3,0-0.5-0.2-0.5-0.5c0,0,0,0,0,0V5.7c0-0.3,0.2-0.5,0.5-0.5
								c0.3,0,0.5,0.2,0.5,0.5c0,0,0,0,0,0v24.3C-998.9,30.2-999.1,30.4-999.4,30.4C-999.4,30.4-999.4,30.4-999.4,30.4z"/>
							<path id="Path_12037" class="st1" d="M-975.7-8v27.4l-23.7,13.7l-23.7-13.7V-8l23.7-13.7L-975.7-8z"/>
							<g id="Group_2133">
								<g>
									<defs>
										<polygon id="SVGID_11_" points="-975.7,-8 -975.7,19.4 -999.4,33.1 -1023.1,19.4 -1023.1,-8 -999.4,-21.7 										"/>
									</defs>
									<clipPath id="SVGID_12_">
										<use xlink:href="#SVGID_11_"  style="overflow:visible;"/>
									</clipPath>
									<g id="Group_2132" class="st16">
										<path id="Path_12038" d="M-1018.7-23.8c-1.3,1.4-1.9,4.1-2.4,5.9c-1.3,3.6-2,7.4-2.2,11.3c-0.1,5.3,3.4,10.3,6.7,14.1
											c3.2,3.7,7.5,6.5,10.4,10.4c0.5,0.7,1,1.5,1.4,2.3c2.5,4.8,3.5,10.3,2.8,15.7c0,0.3-0.1,1.9-0.5,1.9l-29.1,1l-2.2-62
											C-1033.7-23.2-1018.2-24.4-1018.7-23.8z"/>
									</g>
								</g>
							</g>
							<g id="Group_2138">
								<g>
									<defs>
										<polygon id="SVGID_13_" points="-975.7,-8 -975.7,19.4 -999.4,33.1 -1023.1,19.4 -1023.1,-8 -999.4,-21.7 										"/>
									</defs>
									<clipPath id="SVGID_14_">
										<use xlink:href="#SVGID_13_"  style="overflow:visible;"/>
									</clipPath>
									<g id="Group_2137" class="st17">
										<g id="Group_2136" transform="translate(-0.614 9.12)">
											<g id="Group_2134">
												<line id="Line_214" class="st6" x1="-1022.5" y1="-17.1" x2="-998.7" y2="-3.4"/>
												<path id="Path_12040" class="st2" d="M-998.7-2.6c-0.2,0-0.3,0-0.4-0.1l-23.7-13.7c-0.4-0.2-0.6-0.8-0.3-1.2
													c0.2-0.4,0.8-0.6,1.2-0.3c0,0,0,0,0,0l23.7,13.7c0.4,0.2,0.6,0.8,0.3,1.2C-998.1-2.7-998.4-2.6-998.7-2.6L-998.7-2.6z"
													/>
											</g>
											<path id="Path_12041" class="st2" d="M-998.7,29.2c-0.5,0-0.9-0.4-0.9-0.9v0V-3.4c0-0.5,0.4-0.9,0.9-0.9
												c0.5,0,0.9,0.4,0.9,0.9l0,0v31.8C-997.9,28.8-998.3,29.2-998.7,29.2C-998.7,29.2-998.7,29.2-998.7,29.2z"/>
											<g id="Group_2135" transform="translate(16.865)">
												<line id="Line_215" class="st6" x1="-991.9" y1="-17.1" x2="-1015.6" y2="-3.4"/>
												<path id="Path_12042" class="st2" d="M-1015.6-2.6c-0.5,0-0.9-0.4-0.9-0.9c0-0.3,0.2-0.6,0.4-0.7l23.7-13.7
													c0.4-0.2,0.9-0.1,1.2,0.3c0.2,0.4,0.1,0.9-0.3,1.2c0,0,0,0,0,0l-23.7,13.7C-1015.3-2.6-1015.5-2.6-1015.6-2.6z"/>
											</g>
										</g>
									</g>
								</g>
							</g>
						</g>
						<g id="Group_2140" transform="translate(33.334 19.54)">
							<path id="Path_12044" d="M-1010.7-40.8c0,0,11.1,20.5,6.8,39.5c-3.9,17.1-3.5,36.8,1,46.4c1.8,3.7,2.8,7.8,3,11.9
								c0.1,4.4-0.7,9.5-3.9,13.3l-7.5,4.2l-32.4-45.4v-69.9H-1010.7z"/>
							<path id="Path_12045" d="M-1011.7,75.9l-33.1-46.4v-71.3h34.8l0.3,0.5c0.5,0.9,11.2,21.1,6.9,40.2
								c-3.8,16.7-3.4,36.4,0.9,45.7c1.9,3.9,2.9,8.1,3,12.4c0.1,5.9-1.3,10.6-4.2,14l-0.3,0.2L-1011.7,75.9z M-1042.7,28.8
								l31.6,44.4l6.5-3.7c2.5-3,3.7-7.1,3.6-12.5c-0.1-4-1.1-7.9-2.9-11.5c-4.5-9.9-5-29.7-1-47.1c3.8-16.7-4.7-34.9-6.4-38.2
								h-31.4L-1042.7,28.8z"/>
						</g>
						<path id="Path_12046" class="st18" d="M-1020.8,4l-15.3,42.1l28.9,14.7c0,0,3.6-15.9,5.9-18.8c2.9-3.9,4.8-8.5,5.4-13.4
							L-1009.1,4H-1020.8z"/>
						<path id="Path_12047" class="st13" d="M-1009,29.2c0,0,8.3,6,12,4.5c0.5-1.6,0.9-3.3,1.1-5L-1009.1,4h-11.7l-8.2,22.4
							C-1021,26.5-1009,29.2-1009,29.2z"/>
						<path id="Path_12048" class="st18" d="M-1014.6,9v2.3c0,4.1,1.5,8.1,4.3,11.1c5,5.4,14,12.9,25.1,12.7c2.8-0.6,4.8-3,5-5.9
							c0,0,1.3-9,4-12.5c2.7-3.4,4.4-11.5,4.4-14.6l0.9-13.3c0,0,2.3-10.2-5.3-21.5l-27.3-0.2l-13,13v18.9L-1014.6,9z"/>
						<path id="Path_12049" class="st19" d="M-979.8-41.3"/>
						<g id="Group_2141">
							<path id="Path_12050" d="M-977.2-33c0,0-8.9,12.3-37.2,25.8c0,0-18.6,19.2,2.7,35.7c0,0,15.1,10,13.8,28.2h-38.1
								c0,0-10.3,25.7-6.3,48.1c0,0-6.1-11.1-7.8-21.6s-5.6-12.6-6.7-17.6s0.4-10,2.3-16.9s10.1-35,10.9-42.3
								c0.8-7.3,2.7-42.9,19.3-50.6C-1007.8-51.9-987.8-50.5-977.2-33z"/>
							<path id="Path_12051" d="M-1040.3,110.8l-3-5.5c-0.3-0.5-6.2-11.4-8-22c-0.6-4.3-2.1-8.4-4.3-12.1c-1.1-1.7-1.8-3.5-2.4-5.4
								c-1.1-5,0.2-10,2-16.3l0.3-1.1c0.3-1.1,0.7-2.6,1.3-4.6c2.9-10.2,9-31.5,9.6-37.6c0.1-0.5,0.1-1.3,0.2-2.1
								c0.9-10.4,3.8-42,19.7-49.3c23.9-11,41.1-0.6,48.5,11.6l0.4,0.6l-0.4,0.6c-0.4,0.5-9.3,12.6-37.4,26.1
								c-1,1.1-7.7,8.9-7.1,18.2c0.4,5.9,3.7,11.2,9.7,15.9c0.1,0.1,15.6,10.5,14.2,29.1l-0.1,1h-38.3c-1.5,4.1-9.6,27-6,46.8
								L-1040.3,110.8z M-1005.1-47.6c-6.5,0.1-13,1.6-18.9,4.3c-14.8,6.8-17.6,37.5-18.5,47.6c-0.1,0.9-0.1,1.6-0.2,2.1
								c-0.7,6.2-6.5,26.9-9.7,37.9c-0.5,1.9-1,3.5-1.3,4.6l-0.3,1.1c-1.7,6.3-3,10.8-2,15.3c0.5,1.7,1.2,3.3,2.1,4.8
								c2.4,3.9,3.9,8.3,4.6,12.8c1,5.4,2.7,10.7,5,15.7c-1.5-20.7,7-42.2,7.1-42.4l0.3-0.7h37.8c0.7-16.7-13.2-26.1-13.4-26.2
								c-6.6-5.1-10.1-11-10.6-17.4c-0.8-10.9,7.4-19.5,7.8-19.9l0.3-0.2c24.4-11.6,34.3-22.5,36.4-25
								C-984.1-42.3-994.3-47.9-1005.1-47.6L-1005.1-47.6z"/>
						</g>
						<path id="Path_12052" d="M-1043,222c0,0-15.9,23.8,2.2,61.2c0,0,29.6,49.6,32.4,68.3h57.4c0,0-21.9-72.2-21.6-93.7
							c0,0,11.6-30.7,12.1-35.8"/>
						<g id="Group_2142" transform="translate(4.347 64.548)">
							<path id="Path_12053" class="st1" d="M-1015.1-20.2c-3-1.8-5.9-3.5-9.8-3.3c-5.9,0-11.4,2.8-14.8,7.7
								c-1.2,1.6-1.2,1.7-2.7,5.4c-8.5,21.4-8,49.7-3.2,71.2c4.6,20.5,9.4,34.4,7.3,53.4c-0.2,1.7,0,0.5-0.7,2
								c-6.4,14-14,28.6-17.6,43.8c14.1,4,28.3,8.2,42.6,11.3c9.9,2.3,20.1,3.5,30.3,3.9c8,0,16-1.4,23.5-4.2
								c3.2-23.2,3.9-55.6-5.1-77.2c-5.6-13.4,0.2-17.2-0.1-30.9c-0.1-2.2,1-10.6,0.8-13.3c-1.2-14.9-6.8-24-15.8-35.3
								c-8.4-10.6-17.9-20.5-28.2-29.3C-1010.7-17.1-1012.8-18.7-1015.1-20.2z"/>
						</g>
						<path id="Path_12054" class="st1" d="M-933.1,103.2c-2.9,2.5-5.7,5.1-8.6,7.7c-7.5,7-15.6,13.2-24.3,18.7
							c-8.8,5.3-18,10-27.3,14.3c0.5-5.3,0.5-10.8,0.8-16.1c0.5-9.5,1.1-19.2,0.3-28.7c-0.1-1.5-0.3-2.9-0.6-4.4l-23.6-42.1
							c0,0-17.4,1-19,23.6s8.8,95.2,27,105.3c4.1,3.4,10.3,0,10.3,0l52.5-30.1c10.3-5.7,29.3-21.8,29.3-21.8L-933.1,103.2z"/>
						<path id="Path_12055" class="st18" d="M-932.1,104.8c0,0,6.4-5.5,6.9-8l7.7-9.8c0,0,6.5-3.7,7-5.8l7.4-5.8l2,2
							c0,0,1,4.7-4.1,8.2c0,0-6.6,4.2-6.3,7.5c0,0,1.7,1.5,6,0.1c0,0,8.2-8.5,10.1-10.4s5.5-12.2,5.5-12.2l2.9,0.7
							c-0.3,1.4-0.5,2.9-0.5,4.3c0,0-0.6,1.7-1.1,3.6l1.6,9.1c0,1.2-0.4,2.3-1.1,3.2l-13.3,15.1c-11.1,1.1-22.7,12.6-22.7,12.6
							L-932.1,104.8z"/>
						<path id="Path_12056" class="st18" d="M-924.1,119.1c0,0,11.7-9.8,22.7-10.9l13.3-16.8c0.7-0.9,1.1-2.1,1.1-3.2l-2.2-6.1"/>
						<path id="Path_12057" class="st18" d="M-932.1,104.8c1.9-3.9,3.2-7.6,6.3-10.8c3.2-3.4,7.1-5.9,10.6-8.9
							c3.9-3.4,8-6.6,12.1-9.8l2,2c0,0,1,4.7-4.1,8.2c0,0-6.6,4.2-6.3,7.5c0,0,1.7,1.5,6,0.1c0,0,8.2-8.5,10.1-10.4
							c1.9-1.9,5.5-12.2,5.5-12.2l2.9,0.7c-0.3,1.4-0.5,2.9-0.5,4.3c0,0-2.7,8.1-2.4,9.1l-7.7,10.7"/>
						<path id="Path_12058" class="st20" d="M-985.3,351.5"/>
						<path id="Path_12059" class="st20" d="M-946.6,351.5"/>
						<path id="Path_12060" class="st12" d="M-1008.3,182.7c-0.2,0-0.4,0-0.5-0.1c-19.2-10.7-28.9-85.8-27.5-106.3
							c1.6-23.3,19.8-24.6,20-24.6c0.6,0,1.1,0.4,1.1,1c0,0.6-0.4,1.1-1,1.1c-0.7,0-16.5,1.3-17.9,22.6
							c-1.6,24.2,9.5,94.9,26.4,104.3c0.5,0.3,0.7,0.9,0.4,1.5C-1007.6,182.4-1007.9,182.7-1008.3,182.7L-1008.3,182.7z"/>
						<path id="Path_12061" class="st1" d="M-993.5,144c9.4-4.3,18.6-9.1,27.6-14.4c8.7-5.4,16.8-11.7,24.3-18.7
							c2.8-2.6,5.7-5.2,8.6-7.7l16.8,26.4c0,0-19,16.1-29.3,21.8l-52.5,30.1c0,0-6.3,3.4-10.3,0"/>
						<path id="Path_12062" class="st12" d="M-1003.8,184.2c-1.9,0-3.7-0.6-5.2-1.8c-0.5-0.4-0.5-1.1-0.2-1.5
							c0.4-0.5,1.1-0.5,1.5-0.2c0,0,0,0,0,0c3.5,2.9,9.1-0.1,9.1-0.1l52.4-30.1c9-5,24.9-18.1,28.4-21.1l-15.7-24.6
							c-1.7,1.5-3.4,3.1-5.1,4.6c-0.8,0.8-1.7,1.5-2.5,2.3c-7.5,7-15.7,13.3-24.4,18.8c-8.6,5.2-17.6,9.9-26.7,14
							c-0.5,0.2-1.2,0-1.4-0.6c-0.2-0.5,0-1.1,0.5-1.4c9.1-4.1,18-8.8,26.5-13.9c8.6-5.4,16.7-11.6,24.1-18.6
							c0.8-0.8,1.7-1.5,2.5-2.3c2-1.8,4-3.7,6.1-5.4c0.5-0.4,1.1-0.3,1.5,0.1c0,0,0.1,0.1,0.1,0.1l16.8,26.4
							c0.3,0.5,0.2,1.1-0.2,1.4c-0.8,0.7-19.2,16.2-29.5,22l-52.4,30.1C-999.4,183.5-1001.6,184.1-1003.8,184.2z"/>
						<path id="Path_12063" class="st18" d="M-1014-7.2c0,0-0.4-5.2-5.1-5.3c-3-0.3-5.7,1.8-6.2,4.7l0,0c-1,3.1-0.7,6.4,0.8,9.3
							c0.5,0.9,1.1,1.8,1.9,2.5c1.4,1,2.7,2.1,3.9,3.4c1.7,1.5,4.2,1.3,5.7-0.3c0.1-0.1,0.1-0.2,0.2-0.3"/>
						<ellipse id="Ellipse_222" cx="-974.1" cy="-2" rx="1.9" ry="1.9"/>
						<path id="Path_12064" class="st18" d="M-976-2.3c1.5-0.6,3.1-0.8,4.7-0.6c0.2,0,0.4-0.1,0.4-0.3c0-0.1,0-0.1,0-0.2
							c-0.4-1-0.7-1.9-0.9-3c-0.5-2.3-1.9-2.9-3.6-1.4S-976-2.3-976-2.3z"/>
						<path id="Path_12065" d="M-970.7-1.5c-0.1,0-0.1,0-0.2,0c-1.8-0.6-3.8-0.6-5.6-0.1c-0.4,0.1-0.8-0.1-0.9-0.5
							c-0.1-0.4,0.1-0.8,0.5-0.9c2.1-0.7,4.4-0.7,6.5,0c0.4,0.1,0.6,0.5,0.5,0.9C-970-1.7-970.3-1.5-970.7-1.5L-970.7-1.5z"/>
						<path id="Path_12066" class="st18" d="M-978.4,11.9c1.8,0.2,7,0.7,7.1-2.2c0.1-2.4-6.1-8-4.6-17.3c0,0-1.4-7.9-4.7-5.7
							c-3.3,2.2-7.8,17.5-2.3,24"/>
						<path id="Path_12067" class="st1" d="M-978.3,20.7c-0.3,0.3-0.7,0.4-1.1,0.4c-0.4,0-0.8-0.1-1.1-0.3c-0.1,0,0,0.1,0.2,0.1
							c0.2,0,0,0,0,0l-0.2,0l-0.8,0c-1.1,0.1-2.3,0-3.4-0.2c-2.3-0.4-4.4-1.3-6.2-2.8c-0.1-0.1-0.2-0.3,0-0.5
							c0.1-0.1,0.2-0.1,0.3-0.1c2,0.6,4,0.9,6.1,1c1,0,2,0,3-0.1l0.8-0.1l0.2,0c0.1,0,0.3,0,0.4,0c0.4,0,0.7,0.2,1,0.4
							c0.2,0.2,0.2,0.3,0.3,0.5c0.1,0.2,0.3,0.4,0.5,0.7l0,0.1C-978,20.2-978,20.5-978.3,20.7z"/>
						<path id="Path_12068" class="st1" d="M-990.6,18.2c0.9,0.6,1.9,1,2.9,1.2c1,0.3,2.1,0.6,3.1,0.8c1,0.2,2,0.3,3,0.3
							c1,0,1.8,0.1,2.9,0.1h0.1c0.2,0,0.4,0.2,0.4,0.4c0,0.1,0,0.2-0.1,0.2c-0.2,0.3-0.4,0.6-0.7,0.8c-0.3,0.2-0.6,0.4-0.9,0.5
							c-0.6,0.2-1.2,0.3-1.9,0.3c-1.2-0.1-2.4-0.3-3.5-0.7c-1.1-0.4-2.2-0.8-3.1-1.4c-0.5-0.3-1-0.6-1.4-1c-0.5-0.4-0.9-0.8-1.1-1.4
							c0-0.1,0-0.1,0.1-0.1c0,0,0,0,0,0C-990.7,18.1-990.6,18.1-990.6,18.2L-990.6,18.2z"/>
						<path id="Path_12069" class="st13" d="M-975.8,12.9h-0.2c-0.5,0-0.9-0.4-0.9-0.9c0,0,0,0,0,0c0-0.5,0.3-0.8,0.8-0.9
							c0,0,0,0,0.1,0c1.8,0,3.9-0.2,3.9-1.5c-0.3-1-0.8-1.9-1.4-2.7c-2-3.2-5.3-8.5-3.7-15.9c0.1-0.5,0.5-0.8,1-0.7
							c0.5,0.1,0.8,0.5,0.7,1c0,0,0,0,0,0c-1.5,6.7,1.5,11.5,3.5,14.6c0.9,1.1,1.4,2.3,1.6,3.7C-970.4,11.2-971.5,12.9-975.8,12.9z"
							/>
						<path id="Path_12070" class="st13" d="M-979.6,12.9c-1,0-1.9-0.5-2.4-1.3c-0.5-0.9-0.4-1.9,0.1-2.8c0.2-0.4,0.8-0.5,1.2-0.3
							c0.4,0.2,0.5,0.7,0.3,1.2c-0.3,0.4-0.3,0.9,0.1,1.3c0.2,0.2,0.5,0.3,0.8,0.2c0.5,0,0.9,0.4,0.9,0.9
							C-978.7,12.5-979.1,12.9-979.6,12.9L-979.6,12.9z"/>
						<ellipse id="Ellipse_223" cx="-986.3" cy="-2.7" rx="2.9" ry="2.9"/>
						<path id="Path_12071" class="st18" d="M-982.2-3.2c-3.2-0.8-6.5-0.9-9.7-0.4c0,0-1.9-2.9-0.7-4.7s7.8-2.7,9.7-1.1
							C-981-7.7-982.2-3.2-982.2-3.2z"/>
						<path id="Path_12072" d="M-982.2-2.3c-0.1,0-0.2,0-0.3,0c-3.1-0.7-6.2-0.9-9.3-0.3c-0.5,0.1-0.9-0.3-0.9-0.7
							c-0.1-0.4,0.2-0.8,0.6-0.9c3.4-0.6,6.8-0.4,10.1,0.4c0.4,0.1,0.7,0.6,0.5,1.1C-981.5-2.6-981.8-2.3-982.2-2.3L-982.2-2.3z"/>
						<g id="Group_2143" transform="translate(46.003 108.005)">
							<path id="Path_12073" class="st1" d="M-1038.6,35.6c9.1-4.1,18-8.8,26.6-14c8.7-5.4,16.8-11.7,24.3-18.7
								c2.8-2.6,5.7-5.2,8.6-7.7l16.8,26.4"/>
							<path id="Path_12074" class="st2" d="M-1038.6,36.7c-0.6,0-1.1-0.5-1.1-1.1c0-0.4,0.2-0.8,0.6-1c9.1-4.1,18-8.8,26.5-13.9
								c8.6-5.4,16.7-11.6,24.1-18.6c0.8-0.8,1.7-1.5,2.5-2.3c2-1.8,4-3.7,6.1-5.4c0.5-0.4,1.1-0.3,1.5,0.1c0,0,0.1,0.1,0.1,0.1
								l16.8,26.4c0.3,0.5,0.2,1.2-0.3,1.5c-0.5,0.3-1.2,0.2-1.5-0.3c0,0,0,0,0-0.1l-16.2-25.4c-1.7,1.5-3.4,3.1-5.1,4.6
								c-0.8,0.8-1.7,1.5-2.5,2.3c-7.5,7-15.7,13.3-24.4,18.8c-8.6,5.2-17.6,9.9-26.7,14C-1038.2,36.6-1038.4,36.7-1038.6,36.7z"/>
						</g>
					</g>
					<path id="Path_12075" d="M-980.3-7.5c-1.3-0.6-2.6-1-3.9-1.3c-1.4-0.3-2.8-0.5-4.2-0.5c-1.4-0.1-2.8,0-4.2,0.3
						c-1.4,0.3-2.7,0.8-3.9,1.5l0,0c-0.2,0.1-0.5,0.1-0.7-0.2c-0.1-0.2-0.1-0.5,0.1-0.6c1.2-0.9,2.6-1.6,4.1-2.1
						c1.5-0.5,3-0.8,4.5-0.8c1.5-0.1,3.1,0,4.6,0.2c1.6,0.2,3.1,0.6,4.6,1.1c0.7,0.2,1,1,0.8,1.7c-0.2,0.7-1,1-1.7,0.8c0,0,0,0,0,0
						C-980.1-7.5-980.2-7.5-980.3-7.5L-980.3-7.5z"/>
					<path id="Path_12076" d="M-976-9.8c0.4-0.1,0.9-0.1,1.3-0.1c0.4,0,0.9,0,1.3,0c0.9,0.1,1.8,0.3,2.6,0.7
						c0.5,0.2,0.7,0.8,0.5,1.3c-0.2,0.5-0.7,0.7-1.2,0.5l0,0c-0.6-0.2-1.3-0.3-1.9-0.2c-0.3,0-0.7,0-1,0.1c-0.3,0-0.6,0.1-0.9,0.2
						c-0.7,0.2-1.4-0.2-1.6-0.8c-0.2-0.7,0.2-1.4,0.8-1.6l0,0C-976.1-9.7-976.1-9.7-976-9.8L-976-9.8z"/>
					<path id="Path_12077" class="st12" d="M-997,159.7c-0.2,0-0.3,0-0.5-0.1c-0.5-0.3-0.8-0.9-0.5-1.4c3.7-7.7,4-16.4,4.2-24.9
						c0.1-1.8,0.1-3.7,0.2-5.5l0.1-2.1c0.7-8.8,0.7-17.6,0.2-26.5c-0.1-1.4-0.3-2.8-0.6-4.2c-0.1-0.6,0.2-1.2,0.8-1.3
						c0.6-0.1,1.2,0.2,1.3,0.8c0.3,1.5,0.6,3,0.7,4.6c0.5,8.9,0.5,17.8-0.2,26.7l-0.1,2.1c-0.1,1.8-0.1,3.6-0.2,5.4
						c-0.3,8.7-0.6,17.7-4.4,25.8C-996.2,159.4-996.6,159.7-997,159.7z"/>
				</g>
			</g>
		</g>
	</g>
	<g id="Group_2155" transform="translate(180.289 330.309)">
		<path id="Path_12078" class="st2" d="M-970.2,80.8c-0.5,0-0.9-0.4-0.9-0.9c0,0,0,0,0,0V51.2c0-0.5,0.4-0.9,0.9-0.9
			c0.5,0,0.8,0.4,0.9,0.9v28.7C-969.3,80.4-969.7,80.8-970.2,80.8z"/>
		<path id="Path_12079" class="st2" d="M-970.2,98.1c-0.5,0-0.9-0.4-0.9-0.9c0,0,0,0,0,0v-46c0-0.5,0.4-0.9,0.9-0.9
			c0.5,0,0.8,0.4,0.9,0.9v46C-969.3,97.7-969.7,98.1-970.2,98.1z"/>
		<path id="Path_12080" class="st1" d="M-925.3,25.2v52l-45,26l-45-26v-52l45-26L-925.3,25.2z"/>
		<g id="Group_2149" transform="translate(0 0)">
			<g>
				<defs>
					<polygon id="SVGID_15_" points="-925.3,25.2 -925.3,77.2 -970.3,103.2 -1015.3,77.2 -1015.3,25.2 -970.3,-0.8 					"/>
				</defs>
				<clipPath id="SVGID_16_">
					<use xlink:href="#SVGID_15_"  style="overflow:visible;"/>
				</clipPath>
				<g id="Group_2148" class="st21">
					<path id="Path_12081" d="M-1006.7-15.5c-2.7,2.9-3.9,8.7-5.1,12.3c-2.7,7.6-4.2,15.6-4.6,23.7c-0.1,11.1,7.1,21.6,14.1,29.7
						c6.8,7.8,15.6,13.6,21.9,21.9c1.1,1.5,2.1,3.1,3,4.7c5.4,10,7,21.7,6,33c0,0.5-0.1,3.9-1,3.9l-61,2.1l-4.7-130.2
						C-1038.1-14.3-1005.6-16.7-1006.7-15.5z"/>
				</g>
			</g>
		</g>
		<g id="Group_2154" transform="translate(0 0)">
			<g>
				<defs>
					<polygon id="SVGID_17_" points="-925.3,25.2 -925.3,77.2 -970.3,103.2 -1015.3,77.2 -1015.3,25.2 -970.3,-0.8 					"/>
				</defs>
				<clipPath id="SVGID_18_">
					<use xlink:href="#SVGID_17_"  style="overflow:visible;"/>
				</clipPath>
				<g id="Group_2153" class="st22">
					<g id="Group_2152" transform="translate(-0.767 17.702)">
						<g id="Group_2150" transform="translate(0 0.001)">
							<line id="Line_216" class="st6" x1="-1014.5" y1="7.5" x2="-969.5" y2="33.5"/>
							<path id="Path_12083" class="st2" d="M-969.5,34.6c-0.2,0-0.4,0-0.5-0.1l-45-26c-0.5-0.3-0.7-1-0.4-1.5
								c0.3-0.5,1-0.7,1.5-0.4l0,0l45,26c0.5,0.3,0.7,1,0.4,1.5C-968.7,34.4-969.1,34.6-969.5,34.6L-969.5,34.6z"/>
						</g>
						<path id="Path_12084" class="st2" d="M-969.5,94.9c-0.6,0-1.1-0.5-1.1-1.1V33.5c0-0.6,0.5-1.1,1.1-1.1c0.6,0,1.1,0.5,1.1,1.1
							c0,0,0,0,0,0v60.3C-968.4,94.4-968.9,94.9-969.5,94.9z"/>
						<g id="Group_2151" transform="translate(32.003)">
							<line id="Line_217" class="st6" x1="-956.5" y1="7.5" x2="-1001.5" y2="33.5"/>
							<path id="Path_12085" class="st2" d="M-1001.5,34.6c-0.6,0-1.1-0.5-1.1-1.1c0-0.4,0.2-0.7,0.5-0.9l45-26
								c0.5-0.3,1.2-0.1,1.5,0.5c0.3,0.5,0.1,1.1-0.4,1.4l-45,26C-1001.1,34.5-1001.3,34.6-1001.5,34.6z"/>
						</g>
					</g>
				</g>
			</g>
		</g>
	</g>
</g>
</svg>
